<?xml version="1.0" encoding="utf-8"?>
<!-- Generator: Adobe Illustrator 16.0.0, SVG Export Plug-In . SVG Version: 6.00 Build 0)  -->
<!DOCTYPE svg PUBLIC "-//W3C//DTD SVG 1.1//EN" "http://www.w3.org/Graphics/SVG/1.1/DTD/svg11.dtd">
<svg version="1.1"
	 id="svg7997" xmlns:dc="http://purl.org/dc/elements/1.1/" xmlns:cc="http://creativecommons.org/ns#" xmlns:rdf="http://www.w3.org/1999/02/22-rdf-syntax-ns#" xmlns:svg="http://www.w3.org/2000/svg" xmlns:sodipodi="http://sodipodi.sourceforge.net/DTD/sodipodi-0.dtd" xmlns:inkscape="http://www.inkscape.org/namespaces/inkscape" sodipodi:docname="New document 3" inkscape:version="0.48.3.1 r9886"
	 xmlns="http://www.w3.org/2000/svg" xmlns:xlink="http://www.w3.org/1999/xlink" x="0px" y="0px" width="144px" height="144px"
	 viewBox="0 0 144 144" enable-background="new 0 0 144 144" xml:space="preserve">
<sodipodi:namedview  fit-margin-left="0" fit-margin-top="0" showgrid="false" inkscape:cy="-116.57144" inkscape:cx="398.42879" inkscape:zoom="0.35" borderopacity="1.0" bordercolor="#666666" pagecolor="#ffffff" id="base" inkscape:window-maximized="0" inkscape:window-y="592" inkscape:window-x="55" inkscape:window-height="421" inkscape:window-width="483" fit-margin-bottom="0" inkscape:current-layer="layer1" inkscape:pageshadow="2" inkscape:document-units="px" inkscape:pageopacity="0.0" fit-margin-right="0">
	</sodipodi:namedview>
<g>
	<g>
		<polygon fill="#D4DF51" points="72.368,0.304 1,29.986 72.368,65.561 142.864,29.549 		"/>
		<polygon fill="#020004" points="1,106.373 1,29.986 72.368,65.561 72.368,143.695 		"/>
		<polygon fill="#4D4B4F" points="142.864,29.549 72.368,65.561 72.368,143.695 142.864,105.719 		"/>
	</g>
	<polygon fill="#D4DF51" points="66.476,118.377 66.476,134.527 6.893,103.102 6.893,39.588 24.789,49.411 24.789,97.861 	"/>
	<path fill="#FFFFFF" d="M76.735,67.161v69.332l49.76-26.189c0,0,12.006-5.459,12.006-17.242c0-10.039,0-9.313,0-9.313
		s0.17-8.803-7.422-8.803c0,0,6.33-2.689,6.33-12.294c0,0,0-5.264,0-7.737c0-4.802-5.746-15.979-22.723-7.296L76.735,67.161z"/>
	<path fill="#4D4B4F" d="M91.846,74.945v10.693l27.439-13.799c0,0,3.123-2.082,3.115-5.841c-0.006-3.719-2.648-4.588-4.365-3.712
		C113.692,64.507,91.846,74.945,91.846,74.945z"/>
	<path fill="#4D4B4F" d="M91.846,100.713v11.102l28.479-14.324c0,0,3.24-2.164,3.232-6.063c-0.006-3.857-2.75-4.762-4.531-3.852
		C114.518,89.879,91.846,100.713,91.846,100.713z"/>
	<path fill="#020004" d="M20.207,33.805l48.198,23.463c0,0,1.418,1.091,3.493,1.091c2.074,0,4.255-1.2,4.255-1.2l50.744-24.881
		c0,0,2.4-1.201,2.072-2.729c-0.326-1.527-1.854-2.619-1.854-2.619l-9.932-4.146c0,0-1.092-0.873-2.945-0.873
		c-1.855,0-13.205,6.438-13.205,6.438s-0.789,2.586-0.789,3.566L74.623,43.643c0,0-1.838,0.768-3.589,0.768
		c-0.982,0-23.69-11.479-23.69-11.479s-2.947-1.091-2.837-2.51c0.109-1.418,2.509-2.182,2.509-2.182l22.262-8.512
		c0,0,0.436-0.438,2.074,0c1.635,0.436,4.583-0.547,4.583-0.547l12.004-5.129c0,0,0.982-1.199,0.654-2.4
		C88.266,10.452,77.68,6.329,77.68,6.329s-2.4-1.091-5.129-0.763c-2.728,0.328-6.766,1.941-6.766,1.941l-43.724,18.66
		c0,0-3.456,1.698-3.928,3.492C17.588,31.732,18.546,32.979,20.207,33.805z"/>
</g>
</svg>
